<svg width="264" height="67" viewBox="0 0 264 67" fill="none" xmlns="http://www.w3.org/2000/svg">
<path d="M125 3H98C97.4477 3 97 3.44772 97 4V10.5C97 11.0523 97.4477 11.5 98 11.5H124C124.552 11.5 125 11.9477 125 12.5V19.5C125 20.0523 124.552 20.5 124 20.5H98C97.4477 20.5 97 20.9477 97 21.5V31C97 31.5523 97.4477 32 98 32H103.5C104.052 32 104.5 31.5523 104.5 31V28C104.5 27.4477 104.948 27 105.5 27H125C130.016 27.0677 131.411 26.0616 131.5 22.5V8C131.215 4.20432 129.921 3.00363 125 3Z" fill="#3D687C" stroke="#3D687C" stroke-width="3"/>
<path d="M17.2178 31.5598L28.6714 14.6058C29.0679 14.0189 29.9321 14.0189 30.3286 14.6058L41.7822 31.5598C41.9681 31.835 42.2786 32 42.6108 32H48.1217C48.9223 32 49.3983 31.1059 48.9513 30.4416L31.9999 5.25305C31.8888 5.08807 31.7307 4.95881 31.5452 4.88709C29.5761 4.12576 28.3872 4.11347 26.52 4.88075C26.3362 4.95626 26.1815 5.08938 26.0746 5.25684L9.98205 30.4618C9.55705 31.1275 10.0351 32 10.8249 32H16.3892C16.7214 32 17.0319 31.835 17.2178 31.5598Z" fill="#8BD8F6" stroke="#8BD8F6" stroke-width="3"/>
<path d="M61.2178 31.5598L72.6714 14.6059C73.0679 14.0189 73.9321 14.0189 74.3286 14.6059L85.7822 31.5598C85.9681 31.835 86.2786 32 86.6108 32H92.1217C92.9223 32 93.3983 31.1059 92.9513 30.4417L75.9984 5.25086C75.8883 5.08727 75.7319 4.95873 75.5483 4.88684C73.6322 4.13659 72.4414 4.11686 70.5266 4.88147C70.3387 4.95649 70.1804 5.09126 70.0715 5.26176L53.9821 30.4619C53.557 31.1275 54.0351 32 54.8249 32H60.3892C60.7214 32 61.0319 31.835 61.2178 31.5598Z" fill="#8BD8F6" stroke="#8BD8F6" stroke-width="3"/>
<path d="M142 3H138C137.448 3 137 3.44771 137 4V30C137 30.5523 137.448 31 138 31H170C170.552 31 171 30.5523 171 30V25.5C171 24.9477 170.552 24.5 170 24.5H144C143.448 24.5 143 24.0523 143 23.5V4C143 3.44772 142.552 3 142 3Z" fill="#3D687C" stroke="#3D687C" stroke-width="3"/>
<path d="M181.5 2H177C176.448 2 176 2.44222 176 2.9945L176 23.5C176 29 177 31 182.5 31H205.5C210.974 31.0554 212.527 29.4361 212.5 23.5V3C212.5 2.44772 212.052 2 211.5 2H206.5C205.948 2 205.5 2.44772 205.5 3V22.5C205.5 23.0523 205.052 23.5 204.5 23.5H183.5C182.948 23.5 182.5 23.0523 182.5 22.5V3C182.5 2.44772 182.052 2 181.5 2Z" fill="#3D687C" stroke="#3D687C" stroke-width="3"/>
<path d="M249.797 3.4453L252.464 7.4453C252.907 8.10985 252.43 9 251.631 9H225.662C225.555 9 225.447 9.01635 225.347 9.0546C224.454 9.39422 224.219 9.90089 224.018 10.9064C224.006 10.9685 224 11.0319 224 11.0952V14.2631C224 14.4189 224.035 14.5735 224.111 14.7096C224.681 15.7334 225.285 15.9465 226.5 16H248.5C252.051 15.971 252.959 16.9219 253 20V26.5C252.757 30.7501 250.793 31.5695 245.5 31.5H222.974C222.674 31.5 222.39 31.3654 222.2 31.1332L219.336 27.6332C218.802 26.9803 219.267 26 220.11 26H245.086C245.351 26 245.605 25.8946 245.793 25.7071L247.207 24.2929C247.395 24.1054 247.5 23.851 247.5 23.5858V22.4142C247.5 22.149 247.395 21.8946 247.207 21.7071L245.793 20.2929C245.605 20.1054 245.351 20 245.086 20H222.5C219.065 19.9689 218.003 18.8606 218 14.5V9C218.057 4.37103 219.336 3.02213 224 3H248.965C249.299 3 249.611 3.1671 249.797 3.4453Z" fill="#3D687C" stroke="#3D687C" stroke-width="3"/>
<path d="M2 39H262" stroke="#ABD8ED" stroke-width="3" stroke-linecap="round"/>
<path d="M23.8945 46.8H25.6745L30.5545 60H28.7245L27.5845 56.82H21.9845L20.8245 60H18.9945L23.8945 46.8ZM22.5345 55.28H27.0445L24.8045 48.9H24.7745L22.5345 55.28ZM39.4748 64.16H37.7448V51.79H39.5048V53.33C39.5648 53.1233 39.7315 52.88 40.0048 52.6C40.2782 52.32 40.6448 52.0767 41.1048 51.87C41.5715 51.6567 42.1048 51.55 42.7048 51.55C43.4648 51.55 44.1382 51.7333 44.7248 52.1C45.3182 52.46 45.7815 52.9667 46.1148 53.62C46.4548 54.2667 46.6248 55.0267 46.6248 55.9C46.6248 56.7733 46.4515 57.5367 46.1048 58.19C45.7582 58.8367 45.2848 59.34 44.6848 59.7C44.0915 60.06 43.4115 60.24 42.6448 60.24C42.0248 60.24 41.4815 60.1233 41.0148 59.89C40.5548 59.6567 40.1915 59.3933 39.9248 59.1C39.6648 58.8067 39.5148 58.5733 39.4748 58.4V64.16ZM44.9048 55.9C44.9048 55.3067 44.7815 54.7933 44.5348 54.36C44.2948 53.9267 43.9748 53.59 43.5748 53.35C43.1748 53.11 42.7415 52.99 42.2748 52.99C41.7615 52.99 41.2948 53.1133 40.8748 53.36C40.4548 53.6 40.1215 53.94 39.8748 54.38C39.6282 54.8133 39.5048 55.32 39.5048 55.9C39.5048 56.48 39.6282 56.99 39.8748 57.43C40.1215 57.8633 40.4548 58.2 40.8748 58.44C41.2948 58.68 41.7615 58.8 42.2748 58.8C42.7415 58.8 43.1748 58.6833 43.5748 58.45C43.9748 58.21 44.2948 57.8733 44.5348 57.44C44.7815 57.0067 44.9048 56.4933 44.9048 55.9ZM58.0375 60.24C57.1908 60.24 56.4375 60.05 55.7775 59.67C55.1242 59.29 54.6108 58.7767 54.2375 58.13C53.8642 57.4767 53.6775 56.74 53.6775 55.92C53.6775 55.1 53.8642 54.36 54.2375 53.7C54.6108 53.04 55.1242 52.5167 55.7775 52.13C56.4375 51.7433 57.1908 51.55 58.0375 51.55C58.8775 51.55 59.6208 51.7433 60.2675 52.13C60.9208 52.5167 61.4308 53.04 61.7975 53.7C62.1642 54.36 62.3475 55.1 62.3475 55.92C62.3475 56.74 62.1642 57.4767 61.7975 58.13C61.4308 58.7767 60.9208 59.29 60.2675 59.67C59.6208 60.05 58.8775 60.24 58.0375 60.24ZM58.0375 58.75C58.5708 58.75 59.0342 58.6267 59.4275 58.38C59.8275 58.1333 60.1375 57.7967 60.3575 57.37C60.5775 56.9367 60.6875 56.45 60.6875 55.91C60.6875 55.37 60.5775 54.8833 60.3575 54.45C60.1375 54.0167 59.8275 53.6733 59.4275 53.42C59.0342 53.1667 58.5708 53.04 58.0375 53.04C57.4975 53.04 57.0275 53.1667 56.6275 53.42C56.2275 53.6733 55.9142 54.0167 55.6875 54.45C55.4675 54.8833 55.3575 55.37 55.3575 55.91C55.3575 56.45 55.4675 56.9367 55.6875 57.37C55.9142 57.7967 56.2275 58.1333 56.6275 58.38C57.0275 58.6267 57.4975 58.75 58.0375 58.75ZM73.4866 58.41L76.2566 51.79H77.9966L72.4566 64.16H70.6966L72.5566 60L69.1766 51.79H70.9466L73.4866 58.41ZM88.9148 60.24C88.0682 60.24 87.3148 60.05 86.6548 59.67C86.0015 59.29 85.4882 58.7767 85.1148 58.13C84.7415 57.4767 84.5548 56.74 84.5548 55.92C84.5548 55.1 84.7415 54.36 85.1148 53.7C85.4882 53.04 86.0015 52.5167 86.6548 52.13C87.3148 51.7433 88.0682 51.55 88.9148 51.55C89.7548 51.55 90.4982 51.7433 91.1448 52.13C91.7982 52.5167 92.3082 53.04 92.6748 53.7C93.0415 54.36 93.2248 55.1 93.2248 55.92C93.2248 56.74 93.0415 57.4767 92.6748 58.13C92.3082 58.7767 91.7982 59.29 91.1448 59.67C90.4982 60.05 89.7548 60.24 88.9148 60.24ZM88.9148 58.75C89.4482 58.75 89.9115 58.6267 90.3048 58.38C90.7048 58.1333 91.0148 57.7967 91.2348 57.37C91.4548 56.9367 91.5648 56.45 91.5648 55.91C91.5648 55.37 91.4548 54.8833 91.2348 54.45C91.0148 54.0167 90.7048 53.6733 90.3048 53.42C89.9115 53.1667 89.4482 53.04 88.9148 53.04C88.3748 53.04 87.9048 53.1667 87.5048 53.42C87.1048 53.6733 86.7915 54.0167 86.5648 54.45C86.3448 54.8833 86.2348 55.37 86.2348 55.91C86.2348 56.45 86.3448 56.9367 86.5648 57.37C86.7915 57.7967 87.1048 58.1333 87.5048 58.38C87.9048 58.6267 88.3748 58.75 88.9148 58.75ZM115.784 46.8H117.564L122.444 60H120.614L119.474 56.82H113.874L112.714 60H110.884L115.784 46.8ZM114.424 55.28H118.934L116.694 48.9H116.664L114.424 55.28ZM133.475 58.8C133.995 58.8 134.415 58.7167 134.735 58.55C135.055 58.3833 135.255 58.2633 135.335 58.19L136.185 59.44C136.118 59.5 135.958 59.5967 135.705 59.73C135.458 59.8567 135.138 59.9733 134.745 60.08C134.358 60.1867 133.918 60.24 133.425 60.24C132.671 60.24 131.971 60.0733 131.325 59.74C130.678 59.4 130.155 58.9067 129.755 58.26C129.361 57.6133 129.165 56.8233 129.165 55.89C129.165 54.95 129.361 54.16 129.755 53.52C130.155 52.8733 130.678 52.3833 131.325 52.05C131.971 51.7167 132.671 51.55 133.425 51.55C133.911 51.55 134.345 51.61 134.725 51.73C135.105 51.8433 135.418 51.97 135.665 52.11C135.911 52.25 136.075 52.3567 136.155 52.43L135.295 53.68C135.241 53.6267 135.138 53.5467 134.985 53.44C134.838 53.3267 134.638 53.2233 134.385 53.13C134.131 53.0367 133.828 52.99 133.475 52.99C133.048 52.99 132.631 53.1067 132.225 53.34C131.825 53.5667 131.495 53.8967 131.235 54.33C130.975 54.7633 130.845 55.2833 130.845 55.89C130.845 56.4967 130.975 57.02 131.235 57.46C131.495 57.8933 131.825 58.2267 132.225 58.46C132.631 58.6867 133.048 58.8 133.475 58.8ZM150.305 60V58.4C150.252 58.5667 150.095 58.7967 149.835 59.09C149.582 59.3833 149.232 59.65 148.785 59.89C148.345 60.1233 147.825 60.24 147.225 60.24C146.465 60.24 145.775 60.06 145.155 59.7C144.542 59.34 144.052 58.8367 143.685 58.19C143.325 57.5367 143.145 56.7733 143.145 55.9C143.145 55.0267 143.325 54.2667 143.685 53.62C144.052 52.9667 144.542 52.46 145.155 52.1C145.775 51.7333 146.465 51.55 147.225 51.55C147.819 51.55 148.332 51.6567 148.765 51.87C149.205 52.0833 149.555 52.33 149.815 52.61C150.082 52.89 150.239 53.13 150.285 53.33V51.79H152.005V60H150.305ZM144.865 55.9C144.865 56.4933 144.995 57.0067 145.255 57.44C145.515 57.8733 145.852 58.21 146.265 58.45C146.685 58.6833 147.132 58.8 147.605 58.8C148.112 58.8 148.565 58.68 148.965 58.44C149.365 58.2 149.682 57.8633 149.915 57.43C150.149 56.99 150.265 56.48 150.265 55.9C150.265 55.32 150.149 54.8133 149.915 54.38C149.682 53.94 149.365 53.6 148.965 53.36C148.565 53.1133 148.112 52.99 147.605 52.99C147.132 52.99 146.685 53.11 146.265 53.35C145.852 53.59 145.515 53.9267 145.255 54.36C144.995 54.7933 144.865 55.3067 144.865 55.9ZM163.75 60.24C162.997 60.24 162.32 60.06 161.72 59.7C161.127 59.34 160.657 58.8367 160.31 58.19C159.97 57.5367 159.8 56.7733 159.8 55.9C159.8 55.0267 159.97 54.2667 160.31 53.62C160.657 52.9667 161.127 52.46 161.72 52.1C162.32 51.7333 162.997 51.55 163.75 51.55C164.357 51.55 164.89 51.6567 165.35 51.87C165.81 52.0767 166.177 52.32 166.45 52.6C166.724 52.88 166.88 53.1233 166.92 53.33V46.24H168.67V60H166.95V58.4C166.877 58.6267 166.694 58.8833 166.4 59.17C166.114 59.4567 165.744 59.7067 165.29 59.92C164.837 60.1333 164.324 60.24 163.75 60.24ZM164.15 58.8C164.657 58.8 165.12 58.68 165.54 58.44C165.96 58.2 166.294 57.8633 166.54 57.43C166.794 56.99 166.92 56.48 166.92 55.9C166.92 55.32 166.794 54.8133 166.54 54.38C166.294 53.94 165.96 53.6 165.54 53.36C165.12 53.1133 164.657 52.99 164.15 52.99C163.684 52.99 163.25 53.11 162.85 53.35C162.45 53.59 162.127 53.9267 161.88 54.36C161.64 54.7933 161.52 55.3067 161.52 55.9C161.52 56.4933 161.64 57.0067 161.88 57.44C162.127 57.8733 162.45 58.21 162.85 58.45C163.25 58.6833 163.684 58.8 164.15 58.8ZM177.509 56.25C177.515 56.7433 177.622 57.1933 177.829 57.6C178.035 58.0067 178.342 58.33 178.749 58.57C179.162 58.81 179.669 58.93 180.269 58.93C180.775 58.93 181.205 58.8567 181.559 58.71C181.919 58.5567 182.212 58.3767 182.439 58.17C182.665 57.9567 182.829 57.7667 182.929 57.6L183.779 58.65C183.559 58.97 183.289 59.25 182.969 59.49C182.655 59.73 182.272 59.9133 181.819 60.04C181.365 60.1733 180.812 60.24 180.159 60.24C179.279 60.24 178.515 60.0533 177.869 59.68C177.229 59.3 176.735 58.7767 176.389 58.11C176.042 57.4367 175.869 56.6667 175.869 55.8C175.869 55 176.032 54.28 176.359 53.64C176.685 52.9933 177.159 52.4833 177.779 52.11C178.405 51.7367 179.159 51.55 180.039 51.55C180.845 51.55 181.545 51.72 182.139 52.06C182.739 52.3933 183.202 52.8667 183.529 53.48C183.862 54.0933 184.029 54.8267 184.029 55.68C184.029 55.7333 184.025 55.83 184.019 55.97C184.012 56.1033 184.005 56.1967 183.999 56.25H177.509ZM182.369 54.94C182.362 54.6667 182.282 54.3667 182.129 54.04C181.982 53.7133 181.742 53.4333 181.409 53.2C181.075 52.9667 180.625 52.85 180.059 52.85C179.472 52.85 178.999 52.9633 178.639 53.19C178.285 53.4167 178.025 53.6933 177.859 54.02C177.692 54.34 177.595 54.6467 177.569 54.94H182.369ZM178.809 50.66L178.199 49.83L181.229 47.32L182.229 48.56L178.809 50.66ZM201.62 51.55C202.226 51.55 202.746 51.6833 203.18 51.95C203.613 52.21 203.943 52.61 204.17 53.15C204.403 53.69 204.52 54.38 204.52 55.22V60H202.8V55.57C202.8 54.6833 202.676 54.0167 202.43 53.57C202.183 53.1233 201.733 52.9 201.08 52.9C200.733 52.9 200.4 52.9967 200.08 53.19C199.766 53.3767 199.506 53.6667 199.3 54.06C199.1 54.4533 199 54.9567 199 55.57V60H197.38V55.57C197.38 54.6833 197.226 54.0167 196.92 53.57C196.613 53.1233 196.183 52.9 195.63 52.9C195.276 52.9 194.943 52.9933 194.63 53.18C194.323 53.36 194.073 53.6467 193.88 54.04C193.686 54.4333 193.59 54.9433 193.59 55.57V60H191.86V51.79H193.59V53.05C193.663 52.8433 193.82 52.6233 194.06 52.39C194.306 52.1567 194.62 51.96 195 51.8C195.386 51.6333 195.816 51.55 196.29 51.55C196.783 51.55 197.196 51.65 197.53 51.85C197.863 52.05 198.126 52.2967 198.32 52.59C198.513 52.8767 198.646 53.1533 198.72 53.42C198.813 53.1333 198.993 52.8467 199.26 52.56C199.526 52.2667 199.863 52.0267 200.27 51.84C200.676 51.6467 201.126 51.55 201.62 51.55ZM212.916 60V51.79H214.656V60H212.916ZM213.806 48.98C213.492 48.98 213.222 48.87 212.996 48.65C212.776 48.4233 212.666 48.1533 212.666 47.84C212.666 47.5267 212.776 47.2567 212.996 47.03C213.222 46.8033 213.492 46.69 213.806 46.69C214.012 46.69 214.202 46.7433 214.376 46.85C214.556 46.9567 214.699 47.0967 214.806 47.27C214.912 47.4367 214.966 47.6267 214.966 47.84C214.966 48.1533 214.852 48.4233 214.626 48.65C214.399 48.87 214.126 48.98 213.806 48.98ZM226.986 58.8C227.506 58.8 227.926 58.7167 228.246 58.55C228.566 58.3833 228.766 58.2633 228.846 58.19L229.696 59.44C229.629 59.5 229.469 59.5967 229.216 59.73C228.969 59.8567 228.649 59.9733 228.256 60.08C227.869 60.1867 227.429 60.24 226.936 60.24C226.182 60.24 225.482 60.0733 224.836 59.74C224.189 59.4 223.666 58.9067 223.266 58.26C222.872 57.6133 222.676 56.8233 222.676 55.89C222.676 54.95 222.872 54.16 223.266 53.52C223.666 52.8733 224.189 52.3833 224.836 52.05C225.482 51.7167 226.182 51.55 226.936 51.55C227.422 51.55 227.856 51.61 228.236 51.73C228.616 51.8433 228.929 51.97 229.176 52.11C229.422 52.25 229.586 52.3567 229.666 52.43L228.806 53.68C228.752 53.6267 228.649 53.5467 228.496 53.44C228.349 53.3267 228.149 53.2233 227.896 53.13C227.642 53.0367 227.339 52.99 226.986 52.99C226.559 52.99 226.142 53.1067 225.736 53.34C225.336 53.5667 225.006 53.8967 224.746 54.33C224.486 54.7633 224.356 55.2833 224.356 55.89C224.356 56.4967 224.486 57.02 224.746 57.46C225.006 57.8933 225.336 58.2267 225.736 58.46C226.142 58.6867 226.559 58.8 226.986 58.8ZM241.016 60.24C240.17 60.24 239.416 60.05 238.756 59.67C238.103 59.29 237.59 58.7767 237.216 58.13C236.843 57.4767 236.656 56.74 236.656 55.92C236.656 55.1 236.843 54.36 237.216 53.7C237.59 53.04 238.103 52.5167 238.756 52.13C239.416 51.7433 240.17 51.55 241.016 51.55C241.856 51.55 242.6 51.7433 243.246 52.13C243.9 52.5167 244.41 53.04 244.776 53.7C245.143 54.36 245.326 55.1 245.326 55.92C245.326 56.74 245.143 57.4767 244.776 58.13C244.41 58.7767 243.9 59.29 243.246 59.67C242.6 60.05 241.856 60.24 241.016 60.24ZM241.016 58.75C241.55 58.75 242.013 58.6267 242.406 58.38C242.806 58.1333 243.116 57.7967 243.336 57.37C243.556 56.9367 243.666 56.45 243.666 55.91C243.666 55.37 243.556 54.8833 243.336 54.45C243.116 54.0167 242.806 53.6733 242.406 53.42C242.013 53.1667 241.55 53.04 241.016 53.04C240.476 53.04 240.006 53.1667 239.606 53.42C239.206 53.6733 238.893 54.0167 238.666 54.45C238.446 54.8833 238.336 55.37 238.336 55.91C238.336 56.45 238.446 56.9367 238.666 57.37C238.893 57.7967 239.206 58.1333 239.606 58.38C240.006 58.6267 240.476 58.75 241.016 58.75Z" fill="#426378"/>
</svg>
